<svg id="svg" version="1.1" xmlns="http://www.w3.org/2000/svg" xmlns:xlink="http://www.w3.org/1999/xlink" width="400" height="400" viewBox="0, 0, 400,400"><g id="svgg"><path id="path0" d="M211.328 1.176 C 183.995 5.538,159.331 17.862,140.190 36.721 L 134.677 42.153 68.832 42.365 L 2.987 42.578 1.493 44.422 C 0.133 46.103,0.000 47.675,0.000 62.075 C 0.000 79.915,0.224 80.625,5.859 80.625 C 11.234 80.625,11.719 79.439,11.719 66.285 L 11.719 54.688 67.996 54.688 L 124.274 54.688 123.349 56.445 C 122.841 57.412,121.469 59.609,120.301 61.328 C 119.132 63.047,117.070 66.650,115.718 69.336 L 113.259 74.219 75.436 74.219 L 37.613 74.219 35.994 76.277 C 33.235 79.785,34.463 84.489,38.506 85.899 C 40.007 86.422,52.991 86.719,74.393 86.719 C 100.838 86.719,107.872 86.925,107.667 87.695 C 107.524 88.232,106.717 91.221,105.874 94.336 L 104.341 100.000 71.276 100.000 L 38.210 100.000 36.293 101.918 C 33.756 104.455,33.756 108.045,36.293 110.582 L 38.210 112.500 69.886 112.500 L 101.563 112.500 101.556 115.039 C 101.552 116.436,101.327 119.424,101.056 121.680 L 100.564 125.781 70.711 125.781 C 51.880 125.781,39.990 126.084,38.506 126.601 C 34.463 128.011,33.235 132.715,35.994 136.223 L 37.613 138.281 69.182 138.281 L 100.751 138.281 101.116 140.039 C 101.316 141.006,101.702 143.906,101.972 146.484 C 103.116 157.377,107.262 172.449,112.019 183.008 L 114.043 187.500 107.859 187.500 C 97.337 187.500,98.438 176.728,98.438 279.756 C 98.438 374.437,98.290 371.126,102.568 372.617 C 105.770 373.734,150.520 373.720,153.727 372.602 C 157.480 371.293,157.401 372.627,157.813 303.832 L 158.203 238.523 165.820 242.882 L 173.437 247.241 173.437 307.568 C 173.437 372.456,173.355 371.149,177.568 372.617 C 180.733 373.721,225.517 373.721,228.682 372.617 C 232.872 371.157,232.813 371.999,232.813 314.026 L 232.813 260.156 237.695 260.146 C 240.381 260.140,243.369 259.923,244.336 259.664 L 246.094 259.193 246.094 306.038 C 246.094 358.757,245.743 355.781,251.953 355.781 C 258.168 355.781,257.813 358.839,257.813 305.403 L 257.813 257.923 262.305 256.672 C 279.253 251.951,292.183 246.274,303.906 238.407 L 309.766 234.474 340.625 265.245 C 373.722 298.247,374.858 299.169,382.464 299.202 C 392.094 299.243,399.360 292.209,399.871 282.351 C 400.327 273.557,400.282 273.499,366.232 239.346 C 349.466 222.529,335.880 208.466,336.040 208.096 C 336.200 207.725,338.414 204.258,340.960 200.391 C 367.487 160.094,368.375 105.951,343.213 63.032 C 339.395 56.520,337.363 55.031,333.459 55.889 C 327.767 57.139,327.679 61.409,333.149 71.043 C 378.054 150.139,321.680 247.702,231.100 247.650 C 144.728 247.601,87.678 157.055,125.026 79.297 C 159.215 8.113,250.965 -9.866,310.470 42.958 C 319.089 50.609,325.313 50.387,325.313 42.427 C 325.313 34.484,294.576 13.452,272.656 6.397 C 253.804 0.329,229.568 -1.734,211.328 1.176 M217.188 23.914 C 178.884 30.867,153.184 48.912,136.308 80.703 C 95.702 157.196,161.666 249.264,247.336 235.671 C 356.985 218.272,370.820 65.130,266.019 28.867 C 253.765 24.626,227.782 21.991,217.188 23.914 M251.172 37.834 C 330.900 56.275,352.246 157.617,286.648 206.255 C 230.279 248.051,148.385 213.652,137.847 143.753 C 128.130 79.291,188.095 23.244,251.172 37.834 M2.058 95.369 L 0.000 96.988 -0.000 246.932 C -0.000 395.833,0.011 396.886,1.562 398.438 C 4.028 400.903,253.785 400.903,256.250 398.438 C 257.682 397.006,257.812 395.833,257.813 384.432 L 257.813 371.988 255.754 370.369 C 249.831 365.710,246.094 369.488,246.094 380.135 L 246.094 388.281 128.906 388.281 L 11.719 388.281 11.719 242.635 L 11.719 96.988 9.660 95.369 C 8.528 94.479,6.818 93.750,5.859 93.750 C 4.901 93.750,3.191 94.479,2.058 95.369 M35.994 154.402 C 33.235 157.910,34.463 162.614,38.506 164.024 C 41.646 165.118,83.532 165.126,86.409 164.032 C 90.850 162.343,92.106 157.133,88.817 154.042 C 87.039 152.372,86.593 152.344,62.311 152.344 L 37.613 152.344 35.994 154.402 M125.371 206.445 C 127.925 209.990,133.457 216.438,137.664 220.774 L 145.313 228.658 145.313 294.798 L 145.313 360.938 128.125 360.938 L 110.938 360.938 110.938 280.469 L 110.938 200.000 115.832 200.000 L 120.726 200.000 125.371 206.445 M357.631 248.656 C 390.117 281.183,390.077 281.132,385.790 285.126 C 382.054 288.607,382.062 288.613,349.849 256.470 L 319.535 226.221 323.215 222.486 C 325.239 220.431,327.090 218.750,327.328 218.750 C 327.567 218.750,341.203 232.208,357.631 248.656 M26.619 236.433 C 24.696 238.878,24.002 365.705,25.889 369.846 C 27.375 373.109,30.011 373.437,54.687 373.438 C 79.364 373.438,82.000 373.109,83.486 369.846 C 85.373 365.705,84.679 238.878,82.756 236.433 L 81.137 234.375 54.687 234.375 L 28.238 234.375 26.619 236.433 M71.875 303.906 L 71.875 360.938 54.688 360.938 L 37.500 360.938 37.500 303.906 L 37.500 246.875 54.688 246.875 L 71.875 246.875 71.875 303.906 M206.156 257.822 C 210.719 258.661,215.771 259.546,217.383 259.788 L 220.313 260.227 220.313 310.582 L 220.313 360.938 203.125 360.938 L 185.938 360.938 185.938 306.724 L 185.938 252.510 191.898 254.403 C 195.177 255.444,201.593 256.982,206.156 257.822 " stroke="none" fill="#000000" fill-rule="evenodd"></path></g></svg>