<svg id="svg" version="1.1" xmlns="http://www.w3.org/2000/svg" xmlns:xlink="http://www.w3.org/1999/xlink" width="400" height="400" viewBox="0, 0, 400,400"><g id="svgg"><path id="path0" d="M244.026 1.240 C 236.516 3.976,232.962 9.652,231.811 20.748 L 230.982 28.741 223.499 31.192 C 219.383 32.541,212.897 35.209,209.086 37.123 C 205.275 39.036,201.759 40.366,201.274 40.078 C 200.788 39.790,198.457 37.903,196.094 35.885 C 183.592 25.210,174.965 26.437,160.568 40.940 C 146.493 55.118,145.426 63.923,156.258 76.509 L 160.748 81.726 157.030 89.298 C 154.985 93.463,152.328 99.947,151.127 103.708 C 149.926 107.470,148.892 110.631,148.829 110.734 C 148.766 110.836,145.269 111.278,141.057 111.714 C 123.827 113.501,119.858 119.097,119.997 141.406 C 120.122 161.392,124.686 167.031,141.802 168.345 L 148.839 168.886 150.711 175.087 C 151.741 178.498,154.409 185.075,156.640 189.701 L 160.697 198.113 156.436 203.158 C 145.235 216.419,146.230 224.598,160.816 239.184 C 175.140 253.509,183.111 254.654,195.931 244.232 L 201.953 239.336 210.346 243.381 C 214.962 245.605,221.515 248.263,224.908 249.288 L 231.077 251.150 231.623 258.192 C 232.971 275.592,238.781 280.041,260.156 280.041 C 280.965 280.041,286.532 275.853,288.293 258.870 C 288.726 254.698,289.164 251.234,289.266 251.171 C 289.369 251.108,292.530 250.074,296.292 248.873 C 300.053 247.672,306.532 245.018,310.691 242.976 L 318.252 239.263 323.306 243.550 C 336.338 254.606,344.947 253.567,359.307 239.207 C 373.558 224.955,374.732 216.339,364.115 203.906 C 362.097 201.543,360.210 199.212,359.922 198.726 C 359.634 198.241,360.964 194.725,362.877 190.914 C 364.791 187.103,367.459 180.617,368.808 176.501 L 371.259 169.018 379.252 168.189 C 396.438 166.407,400.321 160.807,399.863 138.468 C 399.461 118.852,393.965 111.719,379.253 111.719 C 371.774 111.719,371.597 111.576,368.782 103.253 C 367.379 99.107,364.671 92.607,362.763 88.808 L 359.294 81.901 362.264 78.368 C 375.140 63.053,374.386 55.724,358.318 40.023 C 343.500 25.543,336.632 25.108,321.670 37.702 L 318.182 40.639 310.091 36.762 C 305.642 34.630,299.130 31.951,295.620 30.810 C 288.620 28.533,288.314 28.092,288.290 20.259 C 288.267 12.720,284.068 5.449,277.808 2.106 C 273.602 -0.141,249.511 -0.758,244.026 1.240 M266.427 12.500 C 274.088 12.500,274.988 13.792,276.164 26.479 C 277.280 38.510,277.521 38.911,284.824 40.855 C 293.534 43.173,302.876 46.919,309.684 50.822 C 318.996 56.162,319.827 56.073,328.370 48.818 C 339.511 39.356,339.488 39.356,349.446 49.077 C 360.685 60.050,360.714 60.344,351.607 71.109 C 343.883 80.240,343.796 80.929,349.178 90.316 C 353.155 97.253,357.041 106.996,359.115 115.234 C 360.915 122.382,361.431 122.690,373.493 123.805 C 387.633 125.112,387.500 124.959,387.500 139.947 C 387.500 155.375,388.167 154.784,368.584 156.695 C 361.583 157.378,361.239 157.737,358.490 167.202 C 356.018 175.717,351.680 185.768,347.655 192.311 C 343.857 198.483,344.264 200.150,351.719 208.980 C 360.727 219.650,360.056 222.584,345.896 234.416 C 339.390 239.852,338.586 239.720,328.906 231.641 C 319.519 223.804,319.143 223.737,311.014 228.419 C 301.744 233.758,294.709 236.543,282.240 239.811 C 277.813 240.972,277.200 242.376,276.152 253.755 C 274.904 267.316,274.619 267.578,261.116 267.578 C 245.170 267.578,245.075 267.499,243.794 253.125 C 242.737 241.266,242.780 241.322,232.300 238.285 C 223.658 235.780,214.716 231.928,207.826 227.742 C 201.581 223.949,200.370 224.129,193.380 229.883 C 180.141 240.782,179.739 240.771,168.668 229.190 C 159.349 219.443,159.332 219.721,170.117 206.620 C 175.871 199.630,176.051 198.419,172.258 192.174 C 168.072 185.284,164.220 176.342,161.715 167.700 C 158.674 157.205,158.728 157.247,146.871 156.223 C 132.506 154.982,132.418 154.876,132.428 138.798 L 132.433 128.768 134.877 126.585 C 137.139 124.564,137.980 124.359,146.199 123.829 C 156.982 123.134,159.011 122.255,160.187 117.768 C 163.457 105.289,166.241 98.258,171.581 88.986 C 176.263 80.857,176.196 80.481,168.359 71.094 C 160.289 61.425,160.143 60.564,165.498 54.142 C 177.294 39.994,180.368 39.288,191.020 48.281 C 199.850 55.736,201.517 56.143,207.689 52.345 C 214.306 48.274,224.328 43.940,232.807 41.482 C 243.422 38.406,242.582 39.810,244.225 22.390 C 245.002 14.144,251.789 9.990,260.806 12.240 C 261.378 12.383,263.908 12.500,266.427 12.500 M250.683 64.042 C 232.932 66.284,214.063 75.685,214.063 82.288 C 214.063 88.383,219.715 89.815,226.833 85.523 C 285.130 50.370,350.447 118.699,312.831 175.486 C 282.577 221.158,212.142 208.894,197.858 155.469 C 196.210 149.306,196.018 131.220,197.543 125.781 C 199.361 119.300,202.383 111.952,205.061 107.505 C 209.440 100.233,209.346 96.461,204.741 94.553 C 192.233 89.372,179.050 132.019,185.371 157.217 C 205.037 235.609,315.235 235.649,334.513 157.271 C 346.968 106.633,302.759 57.467,250.683 64.042 M116.672 187.020 C 109.474 189.356,106.242 193.153,102.646 203.495 L 100.209 210.506 93.731 211.512 C 90.168 212.064,83.460 213.799,78.825 215.366 L 70.398 218.216 65.607 213.780 C 52.945 202.058,43.901 202.834,29.890 216.845 C 16.402 230.333,15.697 239.571,27.187 252.276 L 31.718 257.286 29.154 264.113 C 27.743 267.868,25.954 274.539,25.178 278.938 L 23.767 286.935 16.502 289.460 C 0.122 295.154,-3.629 305.040,2.989 325.076 C 8.170 340.761,15.672 345.119,31.384 341.571 L 38.158 340.041 40.625 343.476 C 43.795 347.890,52.110 356.205,56.524 359.375 L 59.959 361.842 58.515 368.226 C 54.475 386.088,59.653 393.227,80.469 398.494 C 97.785 402.875,105.408 398.862,110.918 382.467 L 113.009 376.243 120.372 374.935 C 127.055 373.747,138.393 370.421,141.299 368.794 C 142.130 368.329,144.096 369.576,148.262 373.209 C 160.972 384.294,169.751 383.514,183.155 370.110 C 197.166 356.099,197.942 347.055,186.220 334.393 L 181.784 329.602 184.634 321.175 C 186.201 316.540,187.936 309.832,188.488 306.269 L 189.494 299.791 196.725 297.277 C 212.395 291.830,216.183 284.138,211.804 266.656 C 209.804 258.668,208.338 256.719,204.331 256.719 C 198.341 256.719,197.143 260.123,199.653 270.018 C 202.542 281.404,201.893 282.428,189.300 286.359 C 178.674 289.676,177.631 290.546,176.995 296.615 C 176.034 305.790,174.188 313.554,171.393 320.175 C 166.669 331.368,166.695 331.548,174.226 340.033 C 183.970 351.011,183.961 351.486,173.818 361.493 C 165.255 369.941,164.136 370.042,156.161 363.086 C 144.184 352.639,145.026 352.897,136.061 356.933 C 127.590 360.748,121.927 362.265,112.530 363.237 C 103.508 364.170,103.850 363.838,99.980 375.450 C 95.636 388.487,94.274 389.277,82.016 385.881 C 69.066 382.293,68.597 381.495,71.463 367.918 C 73.862 356.557,73.623 355.405,68.147 351.957 C 62.839 348.614,52.475 338.391,48.828 332.899 C 44.432 326.280,43.687 326.086,32.082 328.537 C 18.505 331.403,17.707 330.934,14.119 317.984 C 10.719 305.712,11.504 304.367,24.624 299.995 C 35.985 296.209,36.264 295.908,36.929 286.719 C 37.489 278.972,39.266 272.380,43.067 263.939 C 47.103 254.974,47.361 255.816,36.914 243.839 C 29.958 235.864,30.059 234.745,38.507 226.182 C 48.514 216.039,48.989 216.030,59.967 225.774 C 68.439 233.294,68.555 233.310,79.817 228.588 C 86.439 225.811,94.243 223.962,103.385 223.005 C 109.433 222.371,110.313 221.329,113.624 210.871 C 117.669 198.099,118.416 197.557,128.656 199.989 C 139.822 202.641,143.281 201.628,143.281 195.703 C 143.281 191.768,141.328 190.211,134.135 188.414 C 125.081 186.151,120.483 185.784,116.672 187.020 M100.775 249.198 C 64.508 253.885,49.418 298.684,75.367 324.633 C 103.510 352.777,151.125 332.838,150.982 292.969 C 150.885 266.097,127.534 245.740,100.775 249.198 M111.807 261.723 C 133.446 265.761,145.050 289.560,134.675 308.622 C 124.632 327.074,99.273 330.627,84.323 315.677 C 62.699 294.053,82.002 256.160,111.807 261.723 " stroke="none" fill="#000000" fill-rule="evenodd"></path></g></svg>